<svg width="1032" height="784" viewBox="0 0 1032 784" fill="none" xmlns="http://www.w3.org/2000/svg">
<rect width="1032" height="784" fill="white"/>
<path d="M159.382 321.44V462.56H250.908V453.286H169.663V321.44H159.382Z" fill="black"/>
<path d="M380.03 386.355H288.705V395.427H380.03V386.355ZM380.03 321.44H288.705V330.714H380.03V321.44ZM288.705 453.286V462.56H380.03V453.286H288.705Z" fill="#0A0B0C"/>
<path d="M486.573 321.44H476.291L411.376 462.56H422.464L481.331 332.73L540.4 462.56H551.488L486.573 321.44Z" fill="#141618"/>
<path d="M709.668 355.712C703.217 345.027 694.347 336.762 683.057 330.512C671.768 324.464 658.664 321.44 644.148 321.44H588.305V330.714H643.342C656.244 330.714 667.736 333.334 677.816 338.576C687.694 343.818 695.355 351.075 700.798 360.147C706.04 369.421 708.862 380.106 708.862 392C708.862 404.096 706.04 414.579 700.798 423.853C695.355 433.126 687.694 440.384 677.816 445.626C667.736 450.867 656.244 453.286 643.342 453.286H598.587V392H588.305V462.56H644.148C658.664 462.56 671.768 459.536 683.057 453.488C694.347 447.44 703.217 439.174 709.668 428.49C715.918 417.805 719.144 405.709 719.144 392C719.144 378.493 715.918 366.397 709.668 355.712Z" fill="#1D2123"/>
<path d="M815.704 321.44H805.423L740.508 462.56H751.596L810.463 332.73L869.532 462.56H880.62L815.704 321.44Z" fill="#272C2F"/>
</svg>
