<svg width="271" height="271" viewBox="0 0 271 271" fill="none" xmlns="http://www.w3.org/2000/svg">
<circle cx="135.5" cy="135.5" r="135.5" fill="url(#paint0_linear_114_11)"/>
<circle cx="135.5" cy="135.5" r="135.5" fill="url(#paint1_linear_114_11)"/>
<g clip-path="url(#clip0_114_11)">
<path fill-rule="evenodd" clip-rule="evenodd" d="M158.066 92.0882C158.066 105.668 147.057 116.676 133.478 116.676C119.898 116.676 108.889 105.668 108.889 92.0882C108.889 78.5085 119.898 67.5 133.478 67.5C147.057 67.5 158.066 78.5085 158.066 92.0882ZM159.566 92.0882C159.566 106.496 147.886 118.176 133.478 118.176C119.069 118.176 107.389 106.496 107.389 92.0882C107.389 77.6801 119.069 66 133.478 66C147.886 66 159.566 77.6801 159.566 92.0882ZM102.543 145.981C99.3584 145.981 96.2214 146.164 93.2708 147.077C83.1479 150.212 77.0828 156.857 75.1913 160.092C71.9973 165.992 71.1378 170.996 71.6284 175.139C72.1194 179.287 73.9708 182.642 76.3109 185.228C80.67 190.047 87.7134 190.86 94.5776 190.86H175.991V192.36H94.5776C87.7257 192.36 80.0411 191.588 75.1985 186.235C72.6874 183.459 70.6725 179.824 70.1388 175.316C69.605 170.806 70.5612 165.49 73.8781 159.367L73.8837 159.356L73.8897 159.346C75.9502 155.814 82.3102 148.901 92.8271 145.645C95.9984 144.663 99.3185 144.481 102.543 144.481H167.295H167.332L167.368 144.484C172.47 144.978 180.056 147.143 186.287 152.057C192.408 156.885 197.205 164.356 197.051 175.4H211.742C212.71 175.4 213.638 175.785 214.322 176.469C215.006 177.153 215.391 178.081 215.391 179.049V197.89V202.238C215.391 203.206 215.006 204.134 214.322 204.818C213.638 205.503 212.71 205.887 211.742 205.887H179.857C178.889 205.887 177.961 205.503 177.276 204.818C176.592 204.134 176.208 203.206 176.208 202.238V197.89V179.049C176.208 178.081 176.592 177.153 177.276 176.469C177.961 175.785 178.889 175.4 179.857 175.4H195.551C195.704 164.857 191.154 157.806 185.358 153.235C179.414 148.547 172.141 146.46 167.259 145.981H102.543ZM177.708 198.201V202.238C177.708 202.808 177.934 203.355 178.337 203.758C178.74 204.161 179.287 204.387 179.857 204.387H211.742C212.312 204.387 212.858 204.161 213.261 203.758C213.664 203.355 213.891 202.808 213.891 202.238V198.201L208.489 192.799C208.155 192.465 207.758 192.2 207.322 192.019C206.885 191.838 206.417 191.745 205.945 191.745C205.472 191.745 205.004 191.838 204.568 192.019C204.131 192.2 203.735 192.465 203.4 192.799L201.208 194.992L203.576 197.36C203.869 197.653 203.869 198.128 203.576 198.421C203.283 198.713 202.809 198.713 202.516 198.421L199.617 195.522L192.546 188.451C192.212 188.117 191.815 187.852 191.379 187.671C190.942 187.49 190.474 187.397 190.002 187.397C189.529 187.397 189.062 187.49 188.625 187.671C188.188 187.852 187.792 188.117 187.458 188.451L177.708 198.201ZM200.147 193.931L193.607 187.39C193.133 186.917 192.571 186.541 191.953 186.285C191.334 186.029 190.671 185.897 190.002 185.897C189.332 185.897 188.669 186.029 188.051 186.285C187.432 186.541 186.87 186.917 186.397 187.39L177.708 196.08V179.049C177.708 178.479 177.934 177.932 178.337 177.529C178.74 177.127 179.287 176.9 179.857 176.9H211.742C212.312 176.9 212.858 177.127 213.261 177.529C213.664 177.932 213.891 178.479 213.891 179.049V196.08L209.55 191.738C209.076 191.265 208.514 190.889 207.896 190.633C207.277 190.377 206.614 190.245 205.945 190.245C205.275 190.245 204.612 190.377 203.994 190.633C203.375 190.889 202.813 191.265 202.34 191.738L200.147 193.931ZM199.105 182.354C199.381 182.078 199.756 181.922 200.147 181.922C200.538 181.922 200.913 182.078 201.19 182.354C201.467 182.631 201.622 183.006 201.622 183.397C201.622 183.788 201.467 184.163 201.19 184.44C200.913 184.716 200.538 184.872 200.147 184.872C199.756 184.872 199.381 184.716 199.105 184.44C198.828 184.163 198.673 183.788 198.673 183.397C198.673 183.006 198.828 182.631 199.105 182.354Z" fill="white"/>
</g>
<defs>
<linearGradient id="paint0_linear_114_11" x1="135.5" y1="0" x2="135.5" y2="271" gradientUnits="userSpaceOnUse">
<stop stop-color="#8A9EEE"/>
<stop offset="1" stop-color="#8C84AD"/>
</linearGradient>
<linearGradient id="paint1_linear_114_11" x1="135.5" y1="0" x2="135.5" y2="271" gradientUnits="userSpaceOnUse">
<stop stop-color="#8A9EEE"/>
<stop offset="1" stop-color="#8C84AD"/>
</linearGradient>
<clipPath id="clip0_114_11">
<rect width="158" height="158" fill="white" transform="translate(57 57)"/>
</clipPath>
</defs>
</svg>
